<?xml version="1.0" encoding="UTF-8" standalone="no"?>
<!-- Created with Inkscape (http://www.inkscape.org/) -->

<svg
   xmlns:dc="http://purl.org/dc/elements/1.1/"
   xmlns:cc="http://creativecommons.org/ns#"
   xmlns:rdf="http://www.w3.org/1999/02/22-rdf-syntax-ns#"
   xmlns:svg="http://www.w3.org/2000/svg"
   xmlns="http://www.w3.org/2000/svg"
   xmlns:sodipodi="http://sodipodi.sourceforge.net/DTD/sodipodi-0.dtd"
   xmlns:inkscape="http://www.inkscape.org/namespaces/inkscape"
   id="svg4136"
   version="1.1"
   inkscape:version="0.91 r13725"
   width="364"
   height="310"
   viewBox="0 0 364 310"
   sodipodi:docname="pfd_logoSVG.svg">
  <metadata
     id="metadata4142">
    <rdf:RDF>
      <cc:Work
         rdf:about="">
        <dc:format>image/svg+xml</dc:format>
        <dc:type
           rdf:resource="http://purl.org/dc/dcmitype/StillImage" />
        <dc:title></dc:title>
      </cc:Work>
    </rdf:RDF>
  </metadata>
  <defs
     id="defs4140" />
  <sodipodi:namedview
     pagecolor="#ffffff"
     bordercolor="#666666"
     borderopacity="1"
     objecttolerance="10"
     gridtolerance="10"
     guidetolerance="10"
     inkscape:pageopacity="0"
     inkscape:pageshadow="2"
     inkscape:window-width="1920"
     inkscape:window-height="1017"
     id="namedview4138"
     showgrid="false"
     inkscape:zoom="2.7419355"
     inkscape:cx="182"
     inkscape:cy="155"
     inkscape:window-x="-8"
     inkscape:window-y="-8"
     inkscape:window-maximized="1"
     inkscape:current-layer="svg4136" />
  <path
     style="fill:#ffffff"
     d="m 115.56996,148.76559 0.1584,-64.625004 66.11607,-0.154823 66.11608,-0.154823 0,55.6563 0,55.65629 -3.42248,0 -3.42247,0 0,-18.85529 0,-18.8553 -5.28929,0 -5.28929,0 0,2.12883 c 0,2.11756 0.0148,2.12882 2.80021,2.12882 l 2.80021,0 0,6.08235 c 0,3.90304 -0.23783,6.08236 -0.66378,6.08236 -0.36509,0 -1.55518,-0.6504 -2.64465,-1.44531 -7.29542,-5.32303 -17.66013,-2.26241 -21.37266,6.31119 -1.24175,2.86765 -1.19945,9.51918 0.0796,12.51197 3.4089,7.9765 13.47104,10.85464 21.01014,6.00966 3.00916,-1.93383 3.59138,-1.87974 3.59138,0.33366 l 0,1.82471 5.91156,0 5.91155,0 0,6.99902 0,6.99902 -41.53645,-0.15637 -41.53646,-0.15638 -0.19313,-2.28088 c -0.19177,-2.26484 -0.21256,-2.28088 -2.95578,-2.28088 l -2.76264,0 0,-6.08235 c 0,-3.3453 0.25158,-6.08236 0.55908,-6.08236 0.30749,0 2.15607,0.82112 4.10794,1.82471 5.97726,3.07331 11.74665,2.2289 16.52185,-2.41816 3.48352,-3.39003 4.63285,-6.84604 4.16624,-12.52786 -0.44782,-5.45312 -2.73462,-9.03556 -7.23441,-11.33326 -2.40467,-1.22788 -4.21528,-1.69584 -6.52421,-1.68619 -3.35646,0.014 -7.58306,1.5288 -9.02804,3.23555 -1.4493,1.71185 -2.56845,1.2238 -2.56845,-1.12008 l 0,-2.12883 -4.97815,0 -4.97815,0 0,2.09211 c 0,1.9785 0.12671,2.10236 2.3335,2.28088 l 2.33351,0.18878 0.16541,16.87853 0.16542,16.87853 -2.81006,0 -2.81005,0 0,2.43294 0,2.43294 -16.49296,0 -16.49296,0 0.1584,-64.625 z"
     id="path4166" />
  <path
     style="fill:#000000"
     d="m 145.8027,209.86035 c 0.18906,-2.24589 0.27298,-2.31932 2.86179,-2.50348 l 2.66699,-0.18973 0,-15.66082 0,-15.66084 -2.35324,-0.19148 -2.35323,-0.19151 -0.18822,-3.54777 -0.18819,-3.54777 6.62039,0 6.62036,0 0,1.52391 0,1.52393 2.23604,-1.49197 c 6.1677,-4.1153 16.40146,-2.12284 20.97406,4.08355 3.27979,4.45167 4.03184,13.68137 1.51503,18.59339 -2.20063,4.29495 -6.73148,7.76157 -11.45527,8.76462 -3.27127,0.6946 -8.56301,-0.20355 -11.07522,-1.87979 l -2.2496,-1.50103 0.18436,4.47301 0.18436,4.47304 2.98078,0.18806 2.98076,0.18803 0,2.43422 0,2.4342 40.47562,0 40.47565,0 0,-5.86153 0,-5.8615 -5.96155,0 c -5.52706,0 -5.96152,-0.0892 -5.96152,-1.22411 0,-1.1966 -0.0598,-1.19314 -2.66699,0.15426 -3.51631,1.81727 -11.52911,1.95493 -14.99774,0.25767 -6.18709,-3.02749 -9.0379,-8.48592 -8.55783,-16.38578 0.33479,-5.50946 1.80034,-8.78324 5.27461,-11.78252 3.33924,-2.88271 5.83465,-3.72171 11.04421,-3.71321 3.68017,0.006 5.08893,0.29929 7.23675,1.50672 l 2.66699,1.4993 0,-4.28323 0,-4.28324 -3.16895,0 -3.16896,0 0.1882,-3.54777 0.18818,-3.54778 6.53774,-0.17698 c 4.80777,-0.13015 6.67333,0.0333 7.05009,0.61701 0.2818,0.43668 0.51669,9.05411 0.52197,19.14981 l 0.011,18.3558 1.8826,0 1.88259,0 0,-54.60469 0,-54.604706 -65.26304,0 -65.26303,0 0,64.168236 0,64.16824 14.70905,0 14.70906,0 0.19478,-2.31377 z"
     id="path4164"
     inkscape:connector-curvature="0" />
  <path
     style="fill:#000000"
     d="m 132.84075,196.05589 0,-4.56177 4.97815,0 4.97816,0 0,4.56177 0,4.56176 -4.97816,0 -4.97815,0 0,-4.56176 z"
     id="path4162" />
  <path
     style="fill:#ffffff"
     d="m 143.37605,196.05589 0,-3.3453 -3.42248,0 -3.42248,0 0,3.3453 0,3.34529 3.42248,0 3.42248,0 0,-3.34529 z"
     id="path4160"
     inkscape:connector-curvature="0" />
  <path
     style="fill:#000000"
     d="m 188.96948,197.1203 c 0.1845,-3.45767 0.20956,-3.49952 2.20899,-3.68795 l 2.02237,-0.1906 0,-8.47676 0,-8.47675 -2.17794,0 -2.17794,0 0,-3.64941 0,-3.64942 2.17794,0 2.17794,0 0,-3.66895 c 0,-6.97158 2.94322,-10.31379 9.08645,-10.31818 4.19323,-0.003 7.07147,1.84233 8.31484,5.33094 1.09268,3.06579 0.74271,3.50422 -3.2409,4.06007 -2.75654,0.38464 -3.00055,0.30775 -3.68527,-1.16115 -1.13311,-2.43083 -2.05567,-1.48916 -2.2611,2.30797 l -0.18663,3.4493 2.52014,0 2.52012,0 0,3.64942 0,3.64941 -2.48907,0 -2.48908,0 0,8.48032 0,8.48032 2.64464,0.18703 2.64465,0.18703 0.18662,3.49736 0.18662,3.49735 -9.08501,0 -9.08501,0 0.18663,-3.49735 z"
     id="path4158" />
  <path
     style="fill:#ffffff"
     d="m 208.23075,196.78513 c 0,-2.58218 -0.0536,-2.61902 -4.13977,-2.84748 l -4.13978,-0.23143 0,-12.52891 0,-12.5289 3.70401,-0.23349 c 3.57537,-0.22539 3.70401,-0.32276 3.70401,-2.80382 0,-2.48109 -0.12858,-2.57843 -3.70401,-2.80382 l -3.70401,-0.23349 -0.2607,-4.34636 c -0.33016,-5.5041 0.78021,-7.42322 4.29485,-7.42322 1.97351,0 2.78958,0.4133 3.14337,1.59202 0.39579,1.31865 0.93207,1.51286 3.1231,1.13107 3.5084,-0.61133 3.55598,-0.69378 1.95607,-3.38936 -1.73278,-2.91942 -3.78734,-3.88971 -8.2365,-3.88971 -7.57511,0 -10.04894,2.51842 -11.03462,11.23349 l -0.61883,5.47173 -2.93775,0 c -2.7764,0 -2.93775,0.14595 -2.93775,2.65765 0,2.53109 0.14525,2.65764 3.05036,2.65764 l 3.05036,0 0,12.90857 0,12.90858 -3.05036,0 c -2.90511,0 -3.05036,0.12656 -3.05036,2.65765 l 0,2.65764 10.89416,0 10.89415,0 0,-2.61605 z"
     id="path4156"
     inkscape:connector-curvature="0" />
  <path
     style="fill:#000000"
     d="m 163.86617,194.4395 c -3.19001,-1.80806 -4.89012,-5.03882 -4.89012,-9.29281 0,-4.01814 0.96742,-6.13587 3.9867,-8.72705 4.35429,-3.73689 11.37642,-2.83853 14.83259,1.89757 1.98247,2.71663 2.04342,10.42009 0.1027,12.98025 -3.40138,4.48703 -9.32042,5.81243 -14.03187,3.14204 z"
     id="path4154" />
  <path
     style="fill:#000000"
     d="m 173.78465,192.93667 c 4.09178,-2.57675 5.3109,-10.00319 2.22967,-13.58243 -1.99678,-2.31954 -4.5626,-3.67424 -6.95904,-3.67424 -4.55967,0 -9.35156,6.15786 -8.52285,10.95234 1.08199,6.25981 8.05519,9.57709 13.25222,6.30433 z"
     id="path4152" />
  <path
     style="fill:#000000"
     d="m 221.51408,194.89316 c -2.2885,-0.9942 -4.36442,-3.1364 -5.24783,-5.4154 -1.76236,-4.54649 0.096,-11.2948 3.82507,-13.89026 4.33502,-3.0172 11.53214,-1.48233 14.69404,3.13368 2.02064,2.9499 1.78011,9.62277 -0.45758,12.69444 -2.6959,3.70067 -8.60723,5.30495 -12.8137,3.47754 z"
     id="path4150" />
  <path
     style="fill:#000000"
     d="m 231.5723,191.37424 c 6.03157,-5.89555 2.3133,-15.69424 -5.95545,-15.69424 -2.15247,0 -3.03456,0.40051 -5.16979,2.34732 -2.3608,2.15246 -2.59685,2.64924 -2.84369,5.98482 -0.19355,2.61545 0.0205,4.18519 0.76201,5.58665 2.56592,4.85005 9.15513,5.73586 13.20692,1.77545 z"
     id="path4146" />
</svg>
